<?xml version="1.0" encoding="UTF-8"?>
<svg id="Calque_1" xmlns="http://www.w3.org/2000/svg" version="1.1" viewBox="0 0 91.86 89.22">
  <!-- Generator: Adobe Illustrator 29.8.2, SVG Export Plug-In . SVG Version: 2.1.1 Build 3)  -->
  <path d="M76.06,85.95H15.63c-3.48,0-6.66-1.43-8.96-3.73-2.31-2.3-3.74-5.48-3.74-8.97V8.07c0-1.38,1.12-2.5,2.5-2.5h60.43c1.38,0,2.5,1.12,2.5,2.5v32.74h17.9c1.38,0,2.5,1.12,2.5,2.5v29.93c0,3.49-1.43,6.66-3.73,8.97-2.31,2.3-5.48,3.73-8.97,3.73h0ZM14.79,75.75c-1.38,0-2.5-1.12-2.5-2.5s1.12-2.5,2.5-2.5h15.28c1.38,0,2.5,1.12,2.5,2.5s-1.12,2.5-2.5,2.5h-15.28ZM14.79,57.57c-1.38,0-2.5-1.12-2.5-2.5s1.12-2.5,2.5-2.5h15.28c1.38,0,2.5,1.12,2.5,2.5s-1.12,2.5-2.5,2.5h-15.28ZM14.79,66.65c-1.38,0-2.5-1.12-2.5-2.5s1.12-2.5,2.5-2.5h15.28c1.38,0,2.5,1.12,2.5,2.5s-1.12,2.5-2.5,2.5h-15.28ZM14.79,48.47c-1.38,0-2.5-1.12-2.5-2.5s1.12-2.5,2.5-2.5h41.71c1.38,0,2.5,1.12,2.5,2.5s-1.12,2.5-2.5,2.5H14.79ZM14.79,39.39c-1.38,0-2.5-1.12-2.5-2.5s1.12-2.5,2.5-2.5h41.71c1.38,0,2.5,1.12,2.5,2.5s-1.12,2.5-2.5,2.5H14.79ZM39.1,52.57h17.4c1.38,0,2.5,1.12,2.5,2.5v18.18c0,1.38-1.12,2.5-2.5,2.5h-17.4c-1.38,0-2.5-1.12-2.5-2.5v-18.18c0-1.38,1.12-2.5,2.5-2.5ZM54,57.57h-12.4v13.18h12.4s0-13.18,0-13.18ZM14.79,14.88h41.71c1.38,0,2.5,1.12,2.5,2.5v10.42c0,1.38-1.12,2.5-2.5,2.5H14.79c-1.38,0-2.5-1.12-2.5-2.5v-10.42c0-1.38,1.12-2.5,2.5-2.5ZM54,19.88H17.29v5.42h36.71v-5.42ZM63.36,73.24V10.57H7.93v62.68c0,2.12.87,4.04,2.26,5.44s3.32,2.26,5.44,2.26h50.35c-1.64-2.14-2.62-4.81-2.62-7.7h0Z"/>
</svg>