<?xml version="1.0" encoding="UTF-8"?>
<svg id="Calque_1" xmlns="http://www.w3.org/2000/svg" version="1.1" viewBox="0 0 97.69 99.6">
  <!-- Generator: Adobe Illustrator 29.8.2, SVG Export Plug-In . SVG Version: 2.1.1 Build 3)  -->
  <path d="M13.16,47.14h0l2.67,1.73h0l4.91,6.07-.38,8.46c-.02.31.04.61.17.89l4.32,9.44.15,3.06c-7.35-6.57-11.97-16.12-11.97-26.76,0-.98.04-1.94.12-2.89h.01ZM48.93,14.15h0c3.41,0,6.7.48,9.82,1.36l-3.32,1.73c-.46.24-.8.65-.95,1.14l-1.6,5.09c-.3.94.16,1.95,1.05,2.36l6.97,3.14c.26.12.53.18.8.18.65,0,1.29-.33,1.65-.92l2.85-4.59,5.37-1.44c2.49,2.03,4.71,4.39,6.58,7.01l-3.96-.18h-.09c-.23,0-.46.04-.68.12l-8.88,3.33c-.56.21-.99.67-1.17,1.24l-3.53,11.2c-.12.37-.12.76-.01,1.13l2.95,10.12c.24.84,1.01,1.4,1.87,1.4h.12l8.19-.49,2.38,3.42-1.3,8.43c-.07.44.02.89.25,1.28l1.87,3.19c-6.58,7.66-16.34,12.52-27.24,12.52-3.43,0-6.73-.48-9.87-1.38l2.55-3.99,7.45-7.29c.14-.14.27-.3.36-.48l4.91-9.34c.25-.47.29-1.01.12-1.51-.16-.5-.53-.91-1-1.13l-9.2-4.36-4.03-7.28c-.26-.47-.7-.8-1.21-.94l-7.92-2.02-4.86-3.55,2.46-11.03,11.77-11.38c.64-.62.77-1.59.33-2.35l-1.41-2.45c3.04-.84,6.25-1.29,9.56-1.29h0ZM48.93,10.26c-21.97,0-39.77,17.81-39.77,39.78s17.81,39.78,39.78,39.78,39.78-17.81,39.78-39.78S70.91,10.26,48.94,10.26h0Z"/>
</svg>